Coordinates
version=1
nRows=5
nColumns=40
inDegrees=yes

Units are S.I. units (second, meters, Newtons, ...)
Angles are in degrees.

endheader
time	pelvis_tilt	pelvis_list	pelvis_rotation	pelvis_tx	pelvis_ty	pelvis_tz	hip_flexion_r	hip_adduction_r	hip_rotation_r	knee_angle_r	knee_angle_r_beta	ankle_angle_r	subtalar_angle_r	mtp_angle_r	hip_flexion_l	hip_adduction_l	hip_rotation_l	knee_angle_l	knee_angle_l_beta	ankle_angle_l	subtalar_angle_l	mtp_angle_l	lumbar_extension	lumbar_bending	lumbar_rotation	arm_flex_r	arm_add_r	arm_rot_r	elbow_flex_r	pro_sup_r	wrist_flex_r	wrist_dev_r	arm_flex_l	arm_add_l	arm_rot_l	elbow_flex_l	pro_sup_l	wrist_flex_l	wrist_dev_l
      0.65000000	     -0.37341377	      3.71678941	     -5.77005759	     -0.08647248	      0.93113772	      1.50697800	    -16.19675152	     -9.86095899	    -21.33523792	    -15.80908367	     -0.27592056	      7.41936606	     12.52427221	    -16.80939951	     26.00082703	      1.63089984	     20.27542719	    -12.24371605	     -0.21369316	      0.46522480	      2.49433563	      5.11111138	     -2.21941460	     -6.92919396	     10.25230389	      7.64495387	    -18.27591713	    -11.72292928	     47.23869097	     89.95437384	      0.00000000	      0.00000000	    -19.93718564	      9.94978186	      1.30148677	      4.82553834	     89.95437384	      0.00000000	      0.00000000
      0.66000000	     -0.02665379	      3.80437510	     -6.24263165	     -0.06992413	      0.93095268	      1.50525485	    -16.85571966	    -10.65648353	    -20.84634497	    -16.94064558	     -0.29567004	      6.00252649	     12.34769697	    -16.28723079	     25.28882107	      1.44682269	     19.15450808	    -13.58479990	     -0.23709949	      1.00502380	      3.62253896	      4.84640479	     -2.07735608	     -6.97246586	     10.66072703	      7.06099161	    -18.38319610	    -11.82860255	     48.38202923	     89.95437384	      0.00000000	      0.00000000	    -20.69281135	      9.68818723	      0.68447634	      4.18727278	     89.95437384	      0.00000000	      0.00000000
      0.67000000	      0.34897323	      4.33923531	     -6.49229022	     -0.05304516	      0.93096186	      1.50245862	    -17.50909389	    -12.04709582	    -21.10277330	    -18.21820750	     -0.31796770	      4.44036465	     12.87109371	    -15.99260143	     24.33567501	      0.37475974	     17.76728845	    -14.16188253	     -0.24717148	      0.20269986	      6.56066154	      4.93956735	     -1.89890171	     -7.46344595	     10.86127681	      6.39711738	    -18.35849336	    -12.17013955	     49.44969940	     89.95437384	      0.00000000	      0.00000000	    -21.56438548	      9.54807303	     -1.12081539	      4.01095668	     89.95437384	      0.00000000	      0.00000000
      0.68000000	      0.60978579	      4.50308267	     -6.70154963	     -0.03620793	      0.93101261	      1.50013259	    -17.92651419	    -12.91483907	    -20.99651927	    -19.56991012	     -0.34155937	      2.45209246	     12.45167976	    -15.35330085	     23.89077567	      0.23422521	     18.80025332	    -15.05896125	     -0.26282846	     -2.46638744	      7.78249425	      5.45112050	     -1.63226771	     -7.59670523	     10.89002032	      5.82104137	    -18.29823086	    -12.20886782	     50.26278760	     89.95437384	      0.00000000	      0.00000000	    -22.25958411	      9.26714387	     -1.27391444	      3.68112556	     89.95437384	      0.00000000	      0.00000000
      0.69000000	      0.91658530	      5.43335999	     -6.90468243	     -0.01969239	      0.93141585	      1.49692469	    -18.02708234	    -14.84475562	    -21.47625811	    -21.51565512	     -0.37551902	      0.35207438	     12.54787983	    -14.71386668	     22.89514218	     -1.10459341	     18.12724837	    -14.46759815	     -0.25250722	     -4.87535051	      8.32292130	      5.25737372	     -1.36093616	     -8.55093253	     10.87190331	      5.32639055	    -18.08282218	    -12.41770964	     50.90904815	     89.95437384	      0.00000000	      0.00000000	    -22.93669200	      9.07486271	     -1.61132244	      3.62727152	     89.95437384	      0.00000000	      0.00000000
